<svg width="187" height="39" viewBox="0 0 327 39" fill="none" xmlns="http://www.w3.org/2000/svg">
<path d="M0.111694 38.7017V2.50989H6.59788L20.6223 19.2017L34.597 2.50989H41.1329V38.7099H35.6491V9.79132L20.614 27.6925L5.53756 9.79132V38.7017H0.111694Z" fill="black"/>
<path d="M54.1797 9.55118V32.1741L59.5808 32.0085V9.55118H54.1797Z" fill="black"/>
<path d="M83.7195 32.1907C83.7195 32.1907 83.7443 32.1907 83.7609 32.1907C83.7609 32.1907 83.7609 32.1824 83.7609 32.1741V9.55118H78.4013V32.0085L83.7195 32.1741V32.1907Z" fill="black"/>
<path d="M60.8402 33.2676L60.716 38.71H77.3083C77.3083 36.8958 77.3166 35.0734 77.3249 33.2593C71.8328 33.2593 66.3406 33.2593 60.8402 33.2593V33.2676Z" fill="black"/>
<path d="M165.961 9.55119H159.756L148.822 21.4053C148.565 21.7615 148.043 22.5898 147.96 23.7661C147.844 25.3815 148.631 26.5329 148.871 26.856C152.5 30.8073 156.136 34.7587 159.764 38.71H165.969V37.7077L153.651 24.1306L165.969 10.5535V9.54291L165.961 9.55119Z" fill="#0045E6"/>
<path d="M142.286 0H136.885V38.71H142.286V0Z" fill="black"/>
<path d="M193.753 10.5618L206.071 24.1389L193.753 37.716V38.7183H199.958L210.892 26.8642C211.149 26.4666 211.596 25.6714 211.679 24.5696C211.812 22.9709 211.099 21.7946 210.851 21.4135C207.222 17.4622 203.586 13.5108 199.958 9.55945H193.753V10.5701V10.5618Z" fill="#0045E6"/>
<path d="M175.255 37.7656L180.946 38.9999L181.932 34.4439C183.315 27.9742 184.707 21.5046 186.09 15.035C186.43 13.5191 186.778 12.0031 187.117 10.4872L181.426 9.25293L175.255 37.7574V37.7656Z" fill="black"/>
<path d="M223.823 37.7988C222.846 37.1941 222.067 36.4071 221.462 35.4379C220.858 34.4687 220.559 33.3753 220.559 32.1741V16.0788C220.559 14.8694 220.866 13.7842 221.462 12.815C222.067 11.8375 222.854 11.0588 223.823 10.4541C224.792 9.84939 225.886 9.55118 227.087 9.55118H243.679C244.889 9.55118 245.982 9.84939 246.976 10.4293C247.97 11.0091 248.749 11.8126 249.337 12.815C249.925 13.8173 250.215 14.9108 250.215 16.0788V26.8394H225.985V32.0168C225.985 32.3564 226.109 32.6463 226.358 32.8948C226.606 33.1433 226.905 33.2676 227.236 33.2676H250.215V38.6935H227.087C225.877 38.6935 224.792 38.387 223.823 37.7905V37.7988ZM225.985 21.7615H244.74V16.2279C244.74 15.8883 244.624 15.5983 244.392 15.3498C244.16 15.1013 243.87 14.977 243.538 14.977H227.244C226.905 14.977 226.615 15.1013 226.366 15.3498C226.118 15.6066 225.993 15.8965 225.993 16.2279V21.7615H225.985Z" fill="black"/>
<path d="M265.201 37.7988C264.223 37.1941 263.445 36.4071 262.84 35.4379C262.235 34.4687 261.937 33.3753 261.937 32.1741V16.0788C261.937 14.8694 262.243 13.7842 262.84 12.815C263.445 11.8375 264.231 11.0588 265.201 10.4541C266.17 9.84939 267.263 9.55118 268.465 9.55118H285.057C286.266 9.55118 287.36 9.84939 288.354 10.4293C289.348 11.0091 290.127 11.8126 290.715 12.815C291.303 13.8173 291.593 14.9108 291.593 16.0788V26.8394H267.363V32.0168C267.363 32.3564 267.487 32.6463 267.736 32.8948C267.984 33.1433 268.282 33.2676 268.614 33.2676H291.593V38.6935H268.465C267.255 38.6935 266.17 38.387 265.201 37.7905V37.7988ZM267.363 21.7615H286.117V16.2279C286.117 15.8883 286.001 15.5983 285.769 15.3498C285.537 15.1013 285.247 14.977 284.916 14.977H268.622C268.282 14.977 267.992 15.1013 267.744 15.3498C267.495 15.6066 267.371 15.8965 267.371 16.2279V21.7615H267.363Z" fill="black"/>
<path d="M311.175 9.55118L311.3 14.9605H326.84V9.55118H311.175Z" fill="black"/>
<path d="M309.452 17.3049H304.01V38.7101H309.452V17.3049Z" fill="black"/>
<path d="M124.119 12.815C123.531 11.8541 122.736 11.0588 121.775 10.4707C120.773 9.88253 119.679 9.55118 118.461 9.55118H101.579V15.0847C101.703 15.0433 101.869 15.0019 102.043 15.0019H118.337C118.669 15.0019 118.925 15.1262 119.174 15.3829C119.422 15.6397 119.505 15.9297 119.505 16.261V16.8492H124.997V16.0954C124.997 14.9191 124.707 13.8339 124.119 12.8233V12.815ZM124.119 24.6691C123.531 23.6667 122.736 22.9046 121.775 22.3247C120.773 21.7366 119.679 21.4467 118.461 21.4467H102.035C101.703 21.4467 101.405 21.3224 101.157 21.0656C100.908 20.8171 100.776 20.5189 100.776 20.1875V16.2527C100.776 16.0871 100.817 15.9131 100.858 15.7889H95.3249V20.3118C95.3249 21.5295 95.6148 22.6147 96.2444 23.6253C96.8325 24.5862 97.6278 25.3815 98.5887 25.9696C99.5496 26.5577 100.643 26.8477 101.861 26.8477H118.329C118.66 26.8477 118.917 26.9719 119.166 27.2287C119.414 27.4772 119.497 27.7755 119.497 28.1068V32.0416C119.497 32.2487 119.455 32.4144 119.373 32.5883H124.989V27.9826C124.989 26.7648 124.699 25.6797 124.111 24.6691H124.119ZM102.035 33.3007C101.703 33.3007 101.405 33.1765 101.157 32.928C100.908 32.6795 100.776 32.3812 100.776 32.0499V31.4203H95.3332V32.1741C95.3332 33.3919 95.6231 34.477 96.2527 35.4462C96.8408 36.4486 97.6361 37.2024 98.597 37.832C99.5579 38.4201 100.651 38.71 101.869 38.71H118.42V33.309H102.035V33.3007Z" fill="black"/>
</svg>
